<?xml version="1.0" standalone="no"?>
<!DOCTYPE svg PUBLIC "-//W3C//DTD SVG 20010904//EN"
 "http://www.w3.org/TR/2001/REC-SVG-20010904/DTD/svg10.dtd">
<svg version="1.0" xmlns="http://www.w3.org/2000/svg"
 width="1280.000000pt" height="894.000000pt" viewBox="0 0 1280.000000 894.000000"
 preserveAspectRatio="xMidYMid meet">

<g transform="translate(1.000000,894.000000) scale(0.100000,-0.100000)"
fill="darkgray" stroke="none" >
<path d="M0 4470 l0 -4470 6400 0 6400 0 0 4470 0 4470 -6400 0 -6400 0 0
-4470z m6365 1860 c78 -11 93 -14 115 -22 8 -4 33 -12 55 -18 79 -24 220 -99
238 -127 4 -7 14 -13 20 -13 15 0 162 -149 170 -172 4 -10 11 -18 17 -18 5 0
    10 -5 10 -12 0 -6 10 -25 23 -42 13 -17 34 -53 48 -81 13 -27 28 -53 33 -56 5
    -4 6 -11 3 -16 -3 -5 0 -21 7 -35 22 -43 36 -148 36 -277 0 -70 4 -121 9 -119
    5 2 202 194 438 428 235 234 442 432 458 440 17 8 33 19 37 25 4 5 8 7 8 3 0
-4 16 4 36 17 20 14 44 25 53 25 10 0 21 4 27 9 13 13 135 53 142 47 3 -3 12
0 20 7 11 8 63 12 177 12 114 0 166 -4 177 -12 8 -7 17 -10 20 -7 6 5 116 -29
146 -46 9 -5 37 -18 62 -29 70 -32 171 -104 224 -160 17 -17 36 -31 43 -31 7
0 13 -8 13 -18 0 -9 -192 -209 -435 -452 -239 -239 -435 -441 -435 -447 0 -7
-5 -13 -11 -13 -6 0 -148 -136 -315 -303 l-304 -303 850 -849 c468 -467 850
-857 850 -866 0 -31 -153 -158 -250 -206 -19 -10 -38 -22 -42 -28 -4 -5 -8 -6
-8 -2 0 5 -10 1 -22 -7 -12 -9 -29 -16 -36 -16 -8 0 -28 -7 -45 -14 -52 -24
-143 -36 -276 -36 -119 0 -245 14 -266 30 -5 4 -28 13 -50 20 -51 17 -111 47
-151 77 -17 13 -37 23 -44 23 -8 0 -256 242 -552 537 -295 295 -541 533 -545
529 -4 -4 -1 -11 6 -15 9 -6 10 -11 2 -15 -8 -5 -11 -176 -11 -596 l0 -588
-42 -7 c-63 -11 -1060 -16 -1094 -5 -16 5 -58 14 -94 20 -36 7 -69 15 -75 19
-5 5 -35 16 -65 25 -30 10 -57 21 -60 25 -3 3 -21 14 -40 24 -68 35 -85 47
-146 101 -34 30 -78 80 -98 111 -21 31 -125 230 -232 443 -107 213 -198 394
-203 402 -19 37 -56 109 -152 302 -57 114 -109 208 -115 208 -10 0 -64 -98
-64 -116 0 -7 -29 -69 -152 -321 -29 -60 -53 -110 -53 -113 0 -3 -19 -44 -43
-93 -23 -48 -42 -92 -42 -98 0 -8 92 -10 308 -8 l307 4 3 -60 c4 -66 -16 -255
-27 -255 -4 0 -13 -22 -20 -49 -14 -56 -49 -126 -97 -194 -19 -26 -34 -51 -34
-55 0 -16 -158 -160 -210 -192 -30 -19 -64 -41 -75 -51 -11 -9 -37 -19 -57
-23 -20 -4 -38 -10 -40 -15 -3 -8 -112 -40 -168 -48 -52 -8 -1424 -20 -1433
-12 -4 3 69 159 163 346 93 188 170 348 170 357 0 9 7 19 15 22 8 4 15 13 15
21 0 8 87 191 194 406 107 216 204 412 216 437 11 25 25 52 30 60 17 30 415
835 415 841 0 3 95 196 211 430 242 487 324 656 324 670 0 5 5 9 10 9 6 0 10
5 10 11 0 14 103 219 110 219 3 0 10 -9 15 -20 6 -10 90 -178 188 -372 671
-1325 663 -1310 679 -1316 4 -2 8 -10 8 -18 0 -13 128 -282 140 -294 5 -5 23
-42 73 -145 13 -27 50 -99 82 -160 31 -60 105 -204 164 -320 l106 -210 3 1453
2 1452 63 -1 c34 0 94 -4 132 -9z"/>
<path d="M8475 6182 c-6 -5 -46 -14 -90 -21 -101 -16 -217 -71 -305 -144 -36
-30 -293 -282 -571 -561 -278 -278 -508 -506 -511 -506 -4 0 -8 148 -10 328
-2 233 -6 333 -15 343 -6 8 -17 37 -24 64 -24 98 -85 191 -192 292 -77 73 -81
76 -188 131 -67 35 -161 62 -217 62 l-32 0 2 -1432 c2 -1028 6 -1433 14 -1433
6 0 59 54 118 120 224 252 620 671 771 815 264 253 633 625 628 635 -4 5 -2 7
2 2 10 -8 1145 1121 1145 1139 0 15 -35 46 -43 37 -4 -3 -7 -2 -7 4 0 16 -134
82 -199 99 -30 8 -72 14 -93 14 -20 0 -40 5 -43 10 -7 12 -127 13 -140 2z"/>
<path d="M4681 5907 c-13 -28 -29 -63 -37 -77 -13 -24 -24 -47 -44 -92 -5 -13
-14 -30 -19 -38 -5 -8 -100 -199 -211 -425 -111 -225 -296 -599 -411 -831
-115 -231 -209 -425 -209 -429 0 -7 -417 -852 -441 -895 -5 -8 -12 -22 -15
-30 -3 -8 -51 -105 -105 -215 -55 -110 -99 -204 -99 -208 0 -5 -7 -15 -15 -23
-8 -9 -15 -22 -15 -31 0 -13 59 -14 553 -8 303 4 566 9 582 11 48 5 166 33
179 42 6 5 30 15 54 22 24 7 46 18 50 24 4 6 18 16 32 23 51 23 230 208 230
238 0 3 10 22 23 43 13 20 29 60 37 87 7 28 16 55 20 60 4 6 11 34 15 64 l7
54 -356 -5 c-196 -3 -356 -3 -356 -2 0 9 148 318 308 644 59 118 107 221 108
228 1 7 9 24 18 37 9 13 16 31 16 39 0 8 3 16 8 18 8 3 212 410 212 424 0 5
23 54 50 108 27 55 47 103 44 108 -3 4 -1 8 5 8 13 0 91 154 91 181 0 11 7 22
15 25 8 4 15 12 15 20 0 8 14 41 31 74 l32 59 -40 78 c-47 90 -73 142 -84 163
-5 8 -61 120 -125 248 -65 127 -120 232 -123 232 -3 0 -17 -24 -30 -53z"/>
<path d="M5109 4948 c-69 -136 -90 -178 -166 -338 -36 -74 -80 -166 -99 -205
l-34 -70 151 -300 c83 -165 154 -304 159 -310 14 -18 240 -473 240 -484 0 -6
5 -11 10 -11 6 0 10 -5 10 -10 0 -24 146 -303 185 -355 49 -63 224 -185 267
-185 7 0 26 -7 41 -15 51 -26 148 -36 337 -33 179 3 185 4 182 23 -2 11 -8 23
-14 26 -5 3 -9 9 -9 13 2 7 -171 355 -216 436 -17 30 -108 210 -203 400 -95
190 -176 347 -179 350 -4 3 -87 165 -185 360 -313 625 -408 810 -417 810 -5 0
-32 -46 -60 -102z"/>
<path d="M7382 4174 c-122 -119 -222 -224 -222 -233 0 -18 1091 -1115 1162
-1167 64 -47 123 -78 183 -94 28 -7 56 -18 64 -24 9 -7 75 -11 181 -11 106 0
172 4 181 11 8 6 35 17 61 24 57 15 117 45 181 89 38 26 45 35 38 49 -6 9
-360 367 -788 795 -511 510 -786 777 -799 777 -12 0 -103 -81 -242 -216z"/>
<path d="M6830 3612 c-85 -89 -157 -168 -159 -175 -2 -6 -7 -14 -11 -17 -4 -3
-66 -72 -138 -154 -145 -163 -151 -176 -107 -236 14 -19 25 -40 25 -47 0 -7 5
-13 10 -13 6 0 10 -6 10 -14 0 -15 165 -186 180 -186 5 0 15 -6 22 -13 15 -14
155 -77 172 -77 6 0 22 -6 36 -13 40 -21 97 -28 109 -13 8 9 10 185 9 567 l-3
554 -155 -163z"/>
</g>
</svg>
